<svg viewBox="0 0 24 24" fill="currentColor" xmlns="http://www.w3.org/2000/svg">
<path opacity="0.4" d="M16.19 2H7.81C4.17 2 2 4.17 2 7.81V16.18C2 19.83 4.17 22 7.81 22H16.18C19.82 22 21.99 19.83 21.99 16.19V7.81C22 4.17 19.83 2 16.19 2Z" fill="white"/>
<path d="M12 10.6899C11.28 10.6899 10.69 11.2799 10.69 11.9999C10.69 12.7199 11.28 13.3099 12 13.3099C12.72 13.3099 13.31 12.7199 13.31 11.9999C13.31 11.2799 12.72 10.6899 12 10.6899Z" fill="white"/>
<path d="M7 10.6899C6.28 10.6899 5.69 11.2799 5.69 11.9999C5.69 12.7199 6.28 13.3099 7 13.3099C7.72 13.3099 8.31 12.7199 8.31 11.9999C8.31 11.2799 7.72 10.6899 7 10.6899Z" fill="white"/>
<path d="M17 10.6899C16.28 10.6899 15.69 11.2799 15.69 11.9999C15.69 12.7199 16.28 13.3099 17 13.3099C17.72 13.3099 18.31 12.7199 18.31 11.9999C18.31 11.2799 17.72 10.6899 17 10.6899Z" fill="white"/>
</svg>
