<svg width="12" height="12" viewBox="0 0 12 12" fill="none" xmlns="http://www.w3.org/2000/svg">
<path fill-rule="evenodd" clip-rule="evenodd" d="M5.83333 11.6667C2.61333 11.6667 0 9.05917 0 5.83333C0 2.61333 2.61333 0 5.83333 0C9.05917 0 11.6667 2.61333 11.6667 5.83333C11.6667 9.05917 9.05917 11.6667 5.83333 11.6667ZM7.69417 7.9975C7.76417 8.03833 7.84 8.06167 7.92167 8.06167C8.0675 8.06167 8.21333 7.98583 8.295 7.84583C8.4175 7.64167 8.35333 7.37333 8.14333 7.245L6.06667 6.00833V3.31333C6.06667 3.06833 5.86833 2.87583 5.62917 2.87583C5.39 2.87583 5.19167 3.06833 5.19167 3.31333V6.25917C5.19167 6.41083 5.27333 6.55083 5.4075 6.6325L7.69417 7.9975Z" fill="#AB94FF"/>
</svg>
